{"title":"Inception.2010.BRRip.720p.H264.Feel-Free","uid":5959196,"size":2390316710,"categoryP":"video","categoryS":"hd___movies","magnet":"?xt=urn:btih:b703b7cb9e27a227e080c0e0a69b82ec01a1ef55&amp;dn=Inception.2010.BRRip.720p.H264.Feel-Free&amp;tr=udp%3A%2F%2Ftracker.openbittorrent.com%3A80&amp;tr=udp%3A%2F%2Fopen.demonii.com%3A1337&amp;tr=udp%3A%2F%2Ftracker.coppersurfer.tk%3A6969&amp;tr=udp%3A%2F%2Fexodus.desync.com%3A6969","seeders":0,"leechers":1,"uploader":".BONE.","files":13,"time":1289888994,"description":"Genre:Drama | Mystery | Sci-Fi | Thriller\nLanguage:English &lt;a href=&quot;\nhttp://www.imdb.com/title/tt1375666/&quot; rel=&quot;nofollow&quot; target=&quot;_NEW&quot;&gt;\nhttp://www.imdb.com/title/tt1375666/&lt;/a&gt;\n\nSource:720p.BluRay.x264-CROSSBOW\n\nGeneral\nComplete name :Inception.2010.BRRip.720p.H264.Feel-Free\nFormat : MPEG-4\nFormat profile : Base Media\nCodec ID : mp42\nFile size : 2.22 GiB\nDuration : 2h 28mn\nOverall bit rate : 2 145 Kbps\nVideo #1\nCodec ID : avc1\nCodec ID/Info : Advanced Video Coding\nDuration : 2h 28mn\nBit rate mode : Variable\nBit rate : 1 585 Kbps\nWidth : 1 280 pixels\nHeight : 536 pixels\nDisplay aspect ratio : 2.35:1\nFrame rate mode : Constant\nFrame rate : 23.976 fps\nResolution : 24 bits\nColorimetry : 4:2:0\nScan type : Progressive\nBits/(Pixel*Frame) : 0.096\nStream size : 1.64 GiB (74%)\nAudio #2\nID : 2\nFormat : AAC\nFormat/Info : Advanced Audio Codec\nFormat version : Version 4\nFormat profile : LC\nFormat settings, SBR : No\nCodec ID : 40\nDuration : 2h 28mn\nBit rate mode : Constant\nBit rate : 556 Kbps\nNominal bit rate : 576 Kbps\nChannel(s) : 6 channels\nChannel positions : Front: L C R, Rear: L R, LFE\nSampling rate : 48.0 KHz\nResolution : 16 bits\nStream size : 589 MiB (26%)\n\nPlot:\nIn a world where technology exists to enter the human mind through dream invasion, a highly skilled thief is given a final chance at redemption which involves executing his toughest job till date, Inception &lt;a href=&quot;\nhttp://www.rapidhdd.com/images/997574vlcsnap-2010-11-16-07h15m59s170.png&quot; rel=&quot;nofollow&quot; target=&quot;_NEW&quot;&gt;\nhttp://www.rapidhdd.com/images/997574vlcsnap-2010-11-16-07h15m59s170.png&lt;/a&gt; &lt;a href=&quot;\nhttp://www.rapidhdd.com/images/325464vlcsnap-2010-11-16-06h56m45s164.png&quot; rel=&quot;nofollow&quot; target=&quot;_NEW&quot;&gt;\nhttp://www.rapidhdd.com/images/325464vlcsnap-2010-11-16-06h56m45s164.png&lt;/a&gt; &lt;a href=&quot;\nhttp://www.rapidhdd.com/images/351570vlcsnap-2010-11-16-07h15m51s91.png&quot; rel=&quot;nofollow&quot; target=&quot;_NEW&quot;&gt;\nhttp://www.rapidhdd.com/images/351570vlcsnap-2010-11-16-07h15m51s91.png&lt;/a&gt; &lt;a href=&quot;\nhttp://www.rapidhdd.com/images/102194vlcsnap-2010-11-16-07h04m19s97.png&quot; rel=&quot;nofollow&quot; target=&quot;_NEW&quot;&gt;\nhttp://www.rapidhdd.com/images/102194vlcsnap-2010-11-16-07h04m19s97.png&lt;/a&gt; &lt;a href=&quot;\nhttp://www.rapidhdd.com/images/716157vlcsnap-2010-11-16-06h52m03s154.png&quot; rel=&quot;nofollow&quot; target=&quot;_NEW&quot;&gt;\nhttp://www.rapidhdd.com/images/716157vlcsnap-2010-11-16-06h52m03s154.png&lt;/a&gt; &lt;a href=&quot;\nhttp://www.youtube.com/watch?v=ig1GrJI5dSg&quot; rel=&quot;nofollow&quot; target=&quot;_NEW&quot;&gt;\nhttp://www.youtube.com/watch?v=ig1GrJI5dSg&lt;/a&gt;","torrent":{"xt":"urn:btih:b703b7cb9e27a227e080c0e0a69b82ec01a1ef55","amp;dn":"Inception.2010.BRRip.720p.H264.Feel-Free","amp;tr":["udp%3A%2F%2Ftracker.openbittorrent.com%3A80","udp%3A%2F%2Fopen.demonii.com%3A1337","udp%3A%2F%2Ftracker.coppersurfer.tk%3A6969","udp%3A%2F%2Fexodus.desync.com%3A6969"],"infoHash":"b703b7cb9e27a227e080c0e0a69b82ec01a1ef55","infoHashBuffer":{"type":"Buffer","data":[183,3,183,203,158,39,162,39,224,128,192,224,166,155,130,236,1,161,239,85]},"announce":[],"urlList":[]}}